<svg width="632" height="632" viewBox="0 0 632 632" fill="none" xmlns="http://www.w3.org/2000/svg">
<path d="M361.665 395.061C360.523 403.456 352.318 410.007 344.114 407.764C332.531 404.556 319.106 399.545 306.952 398.621L288.393 397.215C285.398 396.996 282.587 395.682 280.495 393.523L248.467 360.554C246.749 358.785 245.605 356.538 245.182 354.107C244.759 351.676 245.077 349.173 246.097 346.926C246.097 346.926 265.885 303.408 266.631 301.122C267.377 298.88 270.053 279.144 271.633 268.505C272.065 265.687 273.462 263.109 275.582 261.208L313.401 227.141C314.651 226.022 316.114 225.173 317.703 224.643C319.292 224.113 320.971 223.914 322.639 224.058C324.308 224.202 325.928 224.686 327.404 225.48C328.879 226.275 330.176 227.364 331.215 228.679L363.024 269.12C364.801 271.423 365.758 274.255 365.744 277.165C365.744 284.813 366.403 300.551 370.615 310.705C374.834 319.841 380.074 328.468 386.234 336.42C386.996 337.39 387.449 338.566 387.535 339.797C387.621 341.028 387.336 342.256 386.716 343.322C383.909 348.069 378.424 357.125 370.615 368.774C365.716 376.759 362.659 385.74 361.665 395.061Z" fill="#6C31E3"/>
<path d="M283.913 395.979C298.787 365.78 298.392 344.108 292.03 328.723C286.239 314.48 275.401 305.512 266.89 299.931C266.715 300.765 266.451 301.556 266.1 302.304L246.093 346.922C245.079 349.172 244.767 351.678 245.198 354.109C245.628 356.54 246.781 358.785 248.506 360.549L280.492 393.517C281.5 394.528 282.685 395.363 283.913 395.979Z" fill="url(#paint0_radial_95_10333)"/>
<path d="M324.35 334.713C328.343 335.109 332.247 335.988 336.109 337.394C348.306 341.965 359.406 352.252 368.576 372.077C369.235 370.934 369.892 369.836 370.594 368.78C376.198 360.449 381.568 351.962 386.697 343.329C387.322 342.266 387.615 341.041 387.536 339.81C387.458 338.579 387.012 337.401 386.258 336.427C380.083 328.476 374.828 319.849 370.594 310.712C366.382 300.601 365.768 284.82 365.724 277.171C365.724 274.27 364.803 271.413 363.003 269.127L331.194 228.685L330.668 228.026C332.994 235.719 332.862 241.873 331.414 247.455C330.097 252.643 327.64 257.346 325.053 262.313C324.175 263.984 323.297 265.698 322.463 267.456C318.338 275.352 315.972 284.051 315.531 292.953C315.093 303.59 317.242 316.91 324.306 334.713H324.35Z" fill="url(#paint1_radial_95_10333)"/>
<path d="M324.343 334.711C317.28 316.906 315.129 303.588 315.568 292.949C316.007 282.4 319.078 274.487 322.501 267.454L325.133 262.311C327.678 257.343 330.09 252.639 331.451 247.453C333.066 241.039 332.807 234.295 330.705 228.023C328.522 225.621 325.481 224.18 322.243 224.016C319.004 223.851 315.832 224.975 313.418 227.144L275.598 261.211C273.479 263.112 272.082 265.692 271.65 268.509L267.043 299.103C267.043 299.411 266.954 299.675 266.91 299.982C275.423 305.521 286.216 314.489 292.051 328.688C293.191 331.501 294.158 334.447 294.859 337.655C304.447 334.992 314.417 333.98 324.343 334.666V334.711Z" fill="url(#paint2_radial_95_10333)"/>
<path d="M344.157 407.778C352.318 410.02 360.523 403.47 361.663 395.029C362.597 387.023 364.96 379.252 368.64 372.083C359.426 352.258 348.325 341.972 336.173 337.401C323.23 332.564 309.145 334.191 294.842 337.664C298.046 352.214 296.159 371.249 283.961 395.996C285.322 396.7 286.857 397.096 288.393 397.227L307.654 398.678C318.095 399.425 333.672 404.832 344.157 407.778Z" fill="url(#paint3_radial_95_10333)"/>
<path fill-rule="evenodd" clip-rule="evenodd" d="M315.647 292.29C315.165 302.839 316.48 314.884 323.545 332.643L321.351 332.423C314.99 313.916 313.585 304.422 314.068 293.74C314.506 283.059 317.972 274.837 321.395 267.804C322.273 266.046 324.291 262.75 325.168 261.079C327.713 256.111 329.423 253.519 330.871 248.99C332.977 242.661 332.538 239.672 332.276 236.682C333.899 247.451 327.713 256.815 323.062 266.354C318.756 274.367 316.213 283.21 315.604 292.29H315.647Z" fill="url(#paint4_radial_95_10333)"/>
<path fill-rule="evenodd" clip-rule="evenodd" d="M294.141 329.477C295.018 331.412 295.765 332.994 296.29 335.412L294.404 335.852C293.658 333.039 293.088 331.016 291.991 328.598C285.586 313.52 275.319 305.739 266.982 300.025C277.073 305.476 287.472 314.048 294.141 329.477Z" fill="url(#paint5_radial_95_10333)"/>
<path fill-rule="evenodd" clip-rule="evenodd" d="M296.366 337.354C299.876 353.839 295.927 374.806 284.301 395.203C294.041 374.982 298.779 355.597 294.83 337.617L296.366 337.31V337.354Z" fill="url(#paint6_radial_95_10333)"/>
<path fill-rule="evenodd" clip-rule="evenodd" d="M336.583 335.805C355.668 342.97 363.04 358.663 368.524 371.806C361.723 358.092 352.291 342.926 335.881 337.3C323.42 332.992 312.891 333.519 294.858 337.608L294.463 335.849C313.592 331.454 323.596 330.925 336.583 335.849V335.805Z" fill="url(#paint7_radial_95_10333)"/>
<path d="M319.793 607C242.473 607 179.793 476.939 179.793 316.5C179.793 156.061 242.473 26 319.793 26C397.113 26 459.793 156.061 459.793 316.5C459.793 403.26 441.462 481.136 412.4 534.366C409.203 529.718 404.663 525.916 399.051 523.621C396.967 522.769 394.843 522.172 392.713 521.809C418.403 473.116 434.793 399.227 434.793 316.5C434.793 169.868 383.306 51 319.793 51C256.28 51 204.793 169.868 204.793 316.5C204.793 463.132 256.28 582 319.793 582C334.232 582 348.05 575.856 360.782 564.64C363.906 570.991 369.275 576.269 376.341 579.158C377.148 579.488 377.961 579.778 378.778 580.033C360.852 597.338 340.867 607 319.793 607ZM360.782 564.64C357.127 557.207 356.546 548.304 359.928 540.034C365.347 526.782 379.163 519.498 392.713 521.809C390.606 525.802 388.437 529.625 386.209 533.271C376.579 529.299 367.503 529.71 363.503 535.071C359.502 540.433 361.694 549.252 368.245 557.354C365.803 559.977 363.314 562.409 360.782 564.64ZM386.975 571.429C383.615 570.012 380.193 568.064 376.901 565.608C373.511 563.078 370.597 560.262 368.245 557.354C374.566 550.564 380.575 542.488 386.209 533.271C389.668 534.697 393.199 536.689 396.591 539.22C399.839 541.643 402.648 544.329 404.945 547.106C399.281 556.125 393.275 564.265 386.975 571.429ZM415.464 562.744C409.523 577.273 393.49 584.631 378.778 580.033C381.561 577.347 384.295 574.476 386.975 571.429C396.718 575.537 405.945 575.175 409.988 569.757C414.05 564.314 411.73 555.308 404.945 547.106C407.502 543.036 409.987 538.785 412.4 534.366C417.939 542.421 419.44 553.02 415.464 562.744Z" fill="url(#paint8_linear_95_10333)"/>
<path d="M570.792 171.244C609.452 238.205 528.156 357.518 389.212 437.737C250.268 517.956 106.291 528.705 67.631 461.744C28.9711 394.783 110.268 275.469 249.212 195.25C324.348 151.87 400.957 128.807 461.586 127.361C459.159 132.453 458.136 138.287 458.955 144.294C459.259 146.524 459.804 148.662 460.554 150.689C405.54 152.786 333.355 175.537 261.712 216.901C134.725 290.216 57.5253 394.24 89.2816 449.244C121.038 504.247 249.725 489.402 376.712 416.086C503.698 342.771 580.898 238.747 549.141 183.744C541.922 171.239 529.693 162.344 513.612 156.926C517.55 151.045 519.437 143.757 518.406 136.193C518.289 135.329 518.133 134.479 517.945 133.644C541.895 140.516 560.255 152.993 570.792 171.244ZM513.612 156.926C509.003 163.808 501.583 168.762 492.731 169.969C478.544 171.901 465.328 163.579 460.554 150.689C465.066 150.517 469.462 150.483 473.732 150.59C475.108 160.916 480.002 168.57 486.645 169.354C493.289 170.138 499.831 163.83 503.571 154.106C507.064 154.91 510.415 155.848 513.612 156.926ZM506.396 130.848C506.849 134.466 506.873 138.404 506.392 142.482C505.896 146.684 504.914 150.615 503.571 154.106C494.531 152.026 484.532 150.861 473.732 150.59C473.238 146.882 473.198 142.828 473.694 138.625C474.169 134.601 475.09 130.825 476.347 127.446C486.989 127.842 497.041 128.974 506.396 130.848ZM484.63 110.518C500.183 108.399 514.572 118.605 517.945 133.644C514.227 132.577 510.375 131.645 506.396 130.848C505.082 120.356 500.155 112.546 493.441 111.754C486.696 110.958 480.057 117.47 476.347 127.446C471.543 127.268 466.62 127.241 461.586 127.361C465.792 118.536 474.221 111.937 484.63 110.518Z" fill="url(#paint9_linear_95_10333)"/>
<path d="M67.7921 170.756C106.452 103.795 250.428 114.544 389.372 194.763C528.316 274.982 609.613 394.295 570.953 461.256C532.293 528.217 388.316 517.469 249.372 437.25C174.236 393.87 115.959 339.056 84.3916 287.273C90.0155 286.829 95.5783 284.798 100.371 281.085C102.151 279.707 103.73 278.166 105.11 276.503C134.433 323.097 190.229 374.236 261.872 415.599C388.859 488.915 517.546 503.76 549.302 448.756C581.059 393.753 503.859 289.729 376.872 216.413C249.886 143.098 121.199 128.253 89.4427 183.256C82.2232 195.761 80.6347 210.799 83.9826 227.434C76.9206 226.964 69.6654 228.975 63.6299 233.649C62.9407 234.183 62.283 234.743 61.6533 235.323C55.6299 211.146 57.2553 189.007 67.7921 170.756ZM83.9826 227.434C92.2473 227.985 100.248 231.934 105.719 238.997C114.486 250.316 113.886 265.923 105.11 276.503C102.705 272.682 100.478 268.891 98.4357 265.139C106.69 258.785 110.872 250.72 108.229 244.575C105.586 238.429 96.8527 235.918 86.5611 237.54C85.5104 234.113 84.6484 230.742 83.9826 227.434ZM65.0069 246.723C67.9138 244.522 71.3114 242.532 75.0841 240.91C78.9707 239.238 82.8665 238.123 86.5611 237.54C89.2802 246.409 93.27 255.651 98.4357 265.139C95.4709 267.421 91.9806 269.483 88.0926 271.155C84.3702 272.756 80.6396 273.846 77.0853 274.447C72.107 265.033 68.0609 255.761 65.0069 246.723ZM58.2833 275.738C48.6714 263.328 50.3155 245.764 61.6533 235.323C62.5885 239.076 63.7078 242.878 65.0069 246.723C56.5773 253.107 52.2773 261.279 54.948 267.489C57.6312 273.728 66.5906 276.222 77.0853 274.447C79.3322 278.696 81.7708 282.974 84.3916 287.273C74.6463 288.043 64.7166 284.043 58.2833 275.738Z" fill="url(#paint10_linear_95_10333)"/>
<defs>
<radialGradient id="paint0_radial_95_10333" cx="0" cy="0" r="1" gradientTransform="matrix(-21.06 -81.3229 53.9662 -14.0667 282.29 393.034)" gradientUnits="userSpaceOnUse">
<stop stop-color="white" stop-opacity="0.4"/>
<stop offset="1" stop-opacity="0.1"/>
</radialGradient>
<radialGradient id="paint1_radial_95_10333" cx="0" cy="0" r="1" gradientTransform="matrix(17.9887 -136.271 100.473 13.1875 353.615 358.582)" gradientUnits="userSpaceOnUse">
<stop stop-color="white" stop-opacity="0.6"/>
<stop offset="1" stop-color="white" stop-opacity="0.1"/>
</radialGradient>
<radialGradient id="paint2_radial_95_10333" cx="0" cy="0" r="1" gradientTransform="matrix(25.0088 -114.731 78.0973 17.1438 287.356 334.403)" gradientUnits="userSpaceOnUse">
<stop stop-color="white" stop-opacity="0.8"/>
<stop offset="1" stop-color="white" stop-opacity="0.4"/>
</radialGradient>
<radialGradient id="paint3_radial_95_10333" cx="0" cy="0" r="1" gradientTransform="matrix(-34.6611 -58.4646 67.1285 -39.5625 344.771 408.216)" gradientUnits="userSpaceOnUse">
<stop stop-color="white" stop-opacity="0.3"/>
<stop offset="1" stop-opacity="0.3"/>
</radialGradient>
<radialGradient id="paint4_radial_95_10333" cx="0" cy="0" r="1" gradientTransform="matrix(-12.7237 59.7833 -40.3649 -8.79167 335.698 270.047)" gradientUnits="userSpaceOnUse">
<stop stop-color="white" stop-opacity="0"/>
<stop offset="1" stop-color="white" stop-opacity="0.2"/>
</radialGradient>
<radialGradient id="paint5_radial_95_10333" cx="0" cy="0" r="1" gradientTransform="matrix(31.59 32.0896 -68.0061 67.2563 264.218 303.147)" gradientUnits="userSpaceOnUse">
<stop stop-color="white" stop-opacity="0.2"/>
<stop offset="1" stop-color="white" stop-opacity="0.4"/>
</radialGradient>
<radialGradient id="paint6_radial_95_10333" cx="0" cy="0" r="1" gradientTransform="matrix(8.77498 51.8708 -110.126 18.9021 298.122 324.474)" gradientUnits="userSpaceOnUse">
<stop stop-color="white" stop-opacity="0.1"/>
<stop offset="1" stop-color="white" stop-opacity="0.3"/>
</radialGradient>
<radialGradient id="paint7_radial_95_10333" cx="0" cy="0" r="1" gradientTransform="matrix(-71.0773 -37.3646 117.585 -224.187 368.041 367.543)" gradientUnits="userSpaceOnUse">
<stop stop-color="white" stop-opacity="0.2"/>
<stop offset="0.5" stop-color="white" stop-opacity="0.2"/>
<stop offset="1" stop-color="white" stop-opacity="0.3"/>
</radialGradient>
<linearGradient id="paint8_linear_95_10333" x1="113.96" y1="521.421" x2="487.779" y2="552.713" gradientUnits="userSpaceOnUse">
<stop stop-color="#7E4BE7"/>
<stop offset="1" stop-color="#BB9FF2"/>
</linearGradient>
<linearGradient id="paint9_linear_95_10333" x1="113.959" y1="521.421" x2="487.778" y2="552.713" gradientUnits="userSpaceOnUse">
<stop stop-color="#7E4BE7"/>
<stop offset="1" stop-color="#BB9FF2"/>
</linearGradient>
<linearGradient id="paint10_linear_95_10333" x1="113.959" y1="521.421" x2="487.778" y2="552.713" gradientUnits="userSpaceOnUse">
<stop stop-color="#7E4BE7"/>
<stop offset="1" stop-color="#BB9FF2"/>
</linearGradient>
</defs>
</svg>
